<svg aria-hidden="true" style="position: absolute; width: 0; height: 0; overflow: hidden;" version="1.1" xmlns="http://www.w3.org/2000/svg" xmlns:xlink="http://www.w3.org/1999/xlink">
<defs>

<symbol id="icon-search" viewBox="0 0 32 32">
<path fill="none" stroke="#fff" style="stroke: var(--color1, #fff)" stroke-linejoin="round" stroke-linecap="round" stroke-miterlimit="4" stroke-width="2.6667" d="M14.667 25.333c5.891 0 10.667-4.776 10.667-10.667s-4.776-10.667-10.667-10.667c-5.891 0-10.667 4.776-10.667 10.667s4.776 10.667 10.667 10.667z"></path>
<path fill="none" stroke="#fff" style="stroke: var(--color1, #fff)" stroke-linejoin="round" stroke-linecap="round" stroke-miterlimit="4" stroke-width="2.6667" d="M28 28.001l-5.8-5.8"></path>
</symbol>
<symbol id="icon-close" viewBox="0 0 32 32">
<path stroke-linejoin="miter" stroke-linecap="butt" stroke-miterlimit="4" stroke-width="2.1333" d="M8.533 8.533l14.933 14.933"></path>
<path stroke-linejoin="miter" stroke-linecap="butt" stroke-miterlimit="4" stroke-width="2.1333" d="M8.533 23.467l14.933-14.933"></path>
</symbol>
<symbol id="icon-film" viewBox="0 0 32 32">
<path fill="none"   stroke-linejoin="round" stroke-linecap="round" stroke-miterlimit="4" stroke-width="2.6667" d="M26.427 3.606h-20.853c-1.605 0-2.907 1.239-2.907 2.768v19.856c0 1.529 1.301 2.768 2.907 2.768h20.853c1.605 0 2.907-1.239 2.907-2.768v-19.856c0-1.529-1.301-2.768-2.907-2.768z"></path>
<path fill="none"   stroke-linejoin="round" stroke-linecap="round" stroke-miterlimit="4" stroke-width="2.6667" d="M9.333 3.606v25.391"></path>
<path fill="none"   stroke-linejoin="round" stroke-linecap="round" stroke-miterlimit="4" stroke-width="2.6667" d="M22.667 3.606v25.391"></path>
<path fill="none"   stroke-linejoin="round" stroke-linecap="round" stroke-miterlimit="4" stroke-width="2.6667" d="M2.667 16.301h26.667"></path>
<path fill="none"   stroke-linejoin="round" stroke-linecap="round" stroke-miterlimit="4" stroke-width="2.6667" d="M2.667 9.954h6.667"></path>
<path fill="none"   stroke-linejoin="round" stroke-linecap="round" stroke-miterlimit="4" stroke-width="2.6667" d="M2.667 22.649h6.667"></path>
<path fill="none"   stroke-linejoin="round" stroke-linecap="round" stroke-miterlimit="4" stroke-width="2.6667" d="M22.667 22.649h6.667"></path>
<path fill="none"   stroke-linejoin="round" stroke-linecap="round" stroke-miterlimit="4" stroke-width="2.6667" d="M22.667 9.954h6.667"></path>
</symbol>
<symbol id="Layer_1"  viewBox="0 0 32 32">
<path  d="M18.221,7.206l9.585,9.585c0.879,0.879,0.879,2.317,0,3.195l-0.8,0.801c-0.877,0.878-2.316,0.878-3.194,0  l-7.315-7.315l-7.315,7.315c-0.878,0.878-2.317,0.878-3.194,0l-0.8-0.801c-0.879-0.878-0.879-2.316,0-3.195l9.587-9.585  c0.471-0.472,1.103-0.682,1.723-0.647C17.115,6.524,17.748,6.734,18.221,7.206z"></path>
</symbol>
</defs>
</svg>


